<?xml version="1.0" encoding="utf-8"?>
<svg viewBox="0 0 29 274" xmlns="http://www.w3.org/2000/svg">
  <path d="M 14.114 133.228 C 6.319 133.228 0 126.909 0 119.114 C 0 111.319 6.319 105 14.114 105 C 21.909 105 28.228 111.319 28.228 119.114 C 28.228 126.909 21.909 133.228 14.114 133.228 Z M 18.8 119.436 C 18.347 118.945 17.741 118.622 16.987 118.462 L 16.987 118.398 C 17.511 118.177 17.923 117.835 18.22 117.369 C 18.52 116.904 18.669 116.374 18.669 115.777 C 18.669 115.261 18.56 114.806 18.344 114.411 C 18.128 114.019 17.8 113.702 17.362 113.466 C 16.958 113.247 16.524 113.105 16.061 113.038 C 15.599 112.967 14.918 112.934 14.021 112.934 L 9.7 112.934 L 9.7 125.163 L 14.595 125.163 C 15.445 125.163 16.142 125.087 16.692 124.933 C 17.245 124.778 17.75 124.523 18.209 124.162 C 18.599 123.859 18.907 123.481 19.137 123.022 C 19.367 122.561 19.482 122.026 19.482 121.417 C 19.482 120.587 19.255 119.927 18.8 119.436 Z M 15.515 122.682 C 15.198 122.819 14.884 122.892 14.579 122.903 C 14.273 122.915 13.72 122.92 12.922 122.92 L 12.756 122.92 L 12.756 119.858 L 13.323 119.858 C 13.869 119.858 14.307 119.861 14.632 119.87 C 14.957 119.878 15.215 119.917 15.4 119.991 C 15.706 120.099 15.935 120.259 16.09 120.475 C 16.244 120.688 16.319 120.983 16.319 121.361 C 16.319 121.655 16.255 121.92 16.126 122.152 C 15.997 122.385 15.795 122.561 15.515 122.682 Z M 14.901 117.577 C 14.677 117.68 14.458 117.736 14.248 117.748 C 14.037 117.759 13.667 117.764 13.143 117.764 L 12.756 117.764 L 12.756 115.177 L 12.969 115.177 C 13.516 115.177 13.928 115.18 14.206 115.188 C 14.483 115.196 14.722 115.244 14.923 115.334 C 15.139 115.426 15.296 115.578 15.397 115.785 C 15.498 115.992 15.549 116.195 15.549 116.393 C 15.549 116.66 15.501 116.896 15.408 117.1 C 15.316 117.302 15.145 117.461 14.901 117.577 Z" class="cls-1" style="fill: rgb(255, 255, 255); fill-rule: evenodd;"/>
  <path d="M 14.114 63.228 C 6.319 63.228 0 56.909 0 49.114 C 0 41.319 6.319 35 14.114 35 C 21.909 35 28.228 41.319 28.228 49.114 C 28.228 56.909 21.909 63.228 14.114 63.228 Z M 21.324 43.594 C 21.324 42.727 20.622 42.025 19.755 42.025 L 8.667 42.025 C 7.8 42.025 7.098 42.727 7.098 43.594 L 7.097 54.667 C 7.097 55.534 7.8 56.236 8.666 56.236 L 19.755 56.236 C 20.622 56.236 21.324 55.534 21.324 54.667 L 21.324 43.594 Z M 19.236 46.401 L 17.559 46.401 C 17.256 46.401 17.009 46.155 17.009 45.851 L 17.009 44.174 C 17.009 43.87 17.256 43.624 17.559 43.624 L 19.236 43.624 C 19.54 43.624 19.786 43.87 19.786 44.174 L 19.786 45.851 C 19.786 46.155 19.54 46.401 19.236 46.401 Z M 14.233 51.713 C 12.823 51.713 11.681 50.57 11.681 49.16 C 11.681 47.749 12.823 46.607 14.233 46.607 C 15.644 46.607 16.991 47.636 16.991 49.159 C 16.991 50.683 15.644 51.713 14.233 51.713 Z M 14.233 53.59 C 16.677 53.59 18.659 51.608 18.659 49.164 C 18.659 48.78 18.61 48.406 18.518 48.051 C 19.312 48.052 19.759 48.05 19.759 48.05 L 19.759 54.154 C 19.759 54.457 19.513 54.704 19.209 54.704 L 9.257 54.704 C 8.953 54.704 8.707 54.457 8.707 54.154 L 8.707 48.05 C 8.707 48.05 8.958 48.051 9.948 48.051 C 9.855 48.406 9.806 48.78 9.806 49.164 C 9.806 51.608 11.788 53.59 14.233 53.59 Z" class="cls-1" style="fill: rgb(255, 255, 255); fill-rule: evenodd;"/>
  <path d="M 14.115 28.228 C 6.32 28.228 0.001 21.909 0.001 14.114 C 0.001 6.319 6.32 0 14.115 0 C 21.909 0 28.228 6.319 28.228 14.114 C 28.228 21.909 21.909 28.228 14.115 28.228 Z M 21.892 8.427 C 21.259 8.803 20.558 9.075 19.812 9.222 C 19.214 8.585 18.363 8.187 17.42 8.187 C 15.611 8.187 14.144 9.654 14.144 11.463 C 14.144 11.72 14.173 11.97 14.229 12.21 C 11.507 12.073 9.093 10.769 7.477 8.787 C 7.195 9.271 7.033 9.834 7.033 10.434 C 7.033 11.57 7.612 12.573 8.491 13.161 C 7.954 13.144 7.448 12.996 7.007 12.751 C 7.007 12.765 7.007 12.778 7.007 12.792 C 7.007 14.379 8.136 15.703 9.634 16.005 C 9.36 16.079 9.07 16.119 8.771 16.119 C 8.56 16.119 8.355 16.099 8.155 16.06 C 8.572 17.362 9.782 18.309 11.215 18.335 C 10.094 19.214 8.682 19.738 7.147 19.738 C 6.882 19.738 6.621 19.723 6.365 19.692 C 7.815 20.622 9.537 21.164 11.387 21.164 C 17.413 21.164 20.708 16.172 20.708 11.843 C 20.708 11.701 20.705 11.56 20.698 11.419 C 21.339 10.957 21.894 10.38 22.333 9.724 C 21.746 9.984 21.114 10.16 20.452 10.239 C 21.128 9.834 21.647 9.192 21.892 8.427 Z" class="cls-1" style="fill: rgb(255, 255, 255); fill-rule: evenodd;"/>
  <path d="M 14.115 98.228 C 6.32 98.228 0.001 91.909 0.001 84.114 C 0.001 76.319 6.32 70 14.115 70 C 21.91 70 28.229 76.319 28.229 84.114 C 28.229 91.909 21.91 98.228 14.115 98.228 Z M 17.631 75.459 L 15.12 75.459 C 12.157 75.459 11.448 76.849 11.448 79.364 L 11.448 81.342 L 9.749 81.342 L 9.749 84.12 L 11.448 84.12 L 11.448 92.477 L 14.811 92.477 L 14.811 84.12 L 17.277 84.12 L 17.534 81.342 L 14.811 81.342 L 14.815 79.672 C 14.815 78.868 14.891 78.543 16.045 78.543 L 17.631 78.543 L 17.631 75.459 Z" class="cls-1" style="fill: rgb(255, 255, 255); fill-rule: evenodd;"/>
</svg>