<?xml version="1.0" encoding="utf-8"?>
<svg viewBox="0 0 34.018001556396484 300" xmlns="http://www.w3.org/2000/svg">
  <path d="M 16.655 124.093 C 14.241 124.093 11.961 123.674 9.912 122.945 L 0 126.462 L 3.715 119.031 C 1.858 117.061 0.754 114.653 0.754 112.047 C 0.754 105.394 7.873 100 16.655 100 C 25.436 100 32.556 105.394 32.556 112.047 C 32.556 118.699 25.436 124.093 16.655 124.093 Z" class="cls-1" style="fill: rgb(255, 255, 255); fill-rule: evenodd;"/>
  <path d="M 7.436 252.178 C 8.962 252.178 10.453 252.656 11.907 253.615 C 13.363 254.574 14.516 256.046 15.368 258.033 C 16.185 256.082 17.338 254.645 18.83 253.721 C 20.319 252.798 21.827 252.337 23.354 252.337 C 24.382 252.337 25.368 252.533 26.308 252.923 C 27.25 253.314 28.073 253.899 28.784 254.68 C 29.458 255.461 29.982 256.429 30.354 257.582 C 30.728 258.735 30.843 260.074 30.701 261.601 C 30.524 263.375 29.627 265.186 28.013 267.03 C 26.398 268.877 24.666 270.579 22.822 272.142 C 20.94 273.669 18.456 275.407 15.368 277.36 C 12.281 275.336 9.778 273.543 7.863 271.983 C 5.981 270.456 4.232 268.77 2.618 266.924 C 1.003 265.079 0.142 263.322 0.036 261.653 C -0.071 260.128 0.063 258.77 0.435 257.582 C 0.808 256.393 1.349 255.407 2.06 254.626 C 2.77 253.811 3.593 253.197 4.535 252.79 C 5.475 252.382 6.442 252.178 7.436 252.178 Z M 19.947 255.159 C 18.74 255.833 17.764 257.022 17.019 258.726 C 16.45 259.435 15.901 259.79 15.368 259.79 C 14.836 259.79 14.268 259.435 13.664 258.726 C 13.062 257.235 12.201 256.073 11.082 255.238 C 9.964 254.405 8.749 253.987 7.436 253.987 C 6.691 253.987 5.981 254.139 5.306 254.44 C 4.633 254.741 4.046 255.159 3.549 255.691 C 2.912 256.366 2.45 257.2 2.166 258.194 C 1.882 259.188 1.775 260.306 1.846 261.547 C 1.918 262.505 2.404 263.598 3.309 264.822 C 4.215 266.046 5.341 267.297 6.691 268.574 C 8.003 269.817 9.442 271.016 11.003 272.169 C 12.565 273.322 14.019 274.342 15.368 275.229 C 16.718 274.377 18.163 273.374 19.707 272.221 C 21.251 271.068 22.68 269.871 23.993 268.628 C 25.341 267.385 26.469 266.134 27.373 264.874 C 28.278 263.615 28.784 262.47 28.89 261.442 C 28.997 260.27 28.917 259.205 28.652 258.246 C 28.385 257.289 27.95 256.489 27.346 255.85 C 26.849 255.284 26.256 254.858 25.563 254.574" class="cls-1" style="fill: rgb(255, 0, 0); fill-rule: evenodd;"/>
  <path d="M 7.436 201.452 C 8.962 201.452 10.453 201.93 11.907 202.889 C 13.363 203.848 14.516 205.321 15.368 207.307 C 16.185 205.356 17.338 203.919 18.83 202.996 C 20.319 202.072 21.827 201.611 23.354 201.611 C 24.382 201.611 25.368 201.807 26.308 202.197 C 27.25 202.588 28.073 203.173 28.784 203.954 C 29.458 204.735 29.982 205.703 30.354 206.856 C 30.728 208.009 30.843 209.348 30.701 210.875 C 30.524 212.649 29.627 214.46 28.013 216.304 C 26.398 218.151 24.666 219.853 22.822 221.416 C 20.94 222.943 18.456 224.681 15.368 226.634 C 12.281 224.61 9.778 222.818 7.863 221.257 C 5.981 219.73 4.232 218.044 2.618 216.198 C 1.003 214.353 0.142 212.596 0.036 210.927 C -0.071 209.402 0.063 208.044 0.435 206.856 C 0.808 205.667 1.349 204.681 2.06 203.9 C 2.77 203.085 3.593 202.471 4.535 202.064 C 5.475 201.656 6.442 201.452 7.436 201.452 Z" class="cls-1" style="fill: rgb(255, 40, 40); fill-rule: evenodd;"/>
  <path d="M 7.436 150.726 C 8.962 150.726 10.453 151.204 11.907 152.163 C 13.363 153.122 14.516 154.595 15.368 156.581 C 16.185 154.63 17.338 153.193 18.83 152.27 C 20.319 151.346 21.827 150.885 23.354 150.885 C 24.384 150.885 25.368 151.081 26.308 151.472 C 27.25 151.862 28.073 152.447 28.784 153.228 C 29.458 154.01 29.982 154.977 30.354 156.13 C 30.728 157.283 30.843 158.622 30.701 160.149 C 30.524 161.923 29.627 163.734 28.013 165.578 C 26.398 167.425 24.666 169.128 22.822 170.69 C 20.941 172.217 18.456 173.955 15.368 175.908 C 12.281 173.884 9.778 172.092 7.863 170.531 C 5.981 169.004 4.232 167.318 2.618 165.472 C 1.003 163.627 0.142 161.87 0.036 160.202 C -0.071 158.676 0.063 157.319 0.435 156.13 C 0.808 154.941 1.349 153.955 2.06 153.174 C 2.77 152.359 3.593 151.747 4.535 151.338 C 5.475 150.931 6.442 150.726 7.436 150.726 Z" class="cls-1" style="fill: rgb(255, 255, 255); fill-rule: evenodd;"/>
  <g transform="matrix(1, 0, 0, 1, 0.009094, 0.007999)">
    <path d="M2.356,-0.008 L31.644,-0.008 C32.950,-0.008 34.009,1.051 34.009,2.357 L34.009,30.583 C34.009,31.889 32.950,32.947 31.644,32.947 L2.356,32.947 C1.050,32.947 -0.009,31.889 -0.009,30.583 L-0.009,2.357 C-0.009,1.051 1.050,-0.008 2.356,-0.008 Z" class="cls-1" style="fill: rgb(140, 140, 140); fill-rule: evenodd;"/>
    <path d="M28.340,16.517 L28.403,16.544 L28.277,16.543 L8.046,25.071 L8.046,17.993 L19.956,16.478 L20.257,16.479 L19.956,16.476 L8.046,14.962 L8.046,7.884 L28.276,16.490 L28.403,16.490 L28.340,16.517 Z" class="cls-2" style="fill: rgb(255, 255, 255); fill-rule: evenodd;"/>
  </g>
  <g transform="matrix(1, 0, 0, 1, 0.009109, 50.007999)">
    <path d="M2.356,-0.008 L31.644,-0.008 C32.950,-0.008 34.009,1.051 34.009,2.357 L34.009,30.583 C34.009,31.889 32.950,32.947 31.644,32.947 L2.356,32.947 C1.050,32.947 -0.009,31.889 -0.009,30.583 L-0.009,2.357 C-0.009,1.051 1.050,-0.008 2.356,-0.008 Z" class="cls-1" style="fill: rgb(140, 140, 140); fill-rule: evenodd;"/>
    <g>
      <path d="M17.324,20.799 C17.835,20.799 18.249,21.214 18.249,21.725 L18.249,26.352 C18.249,26.863 17.835,27.278 17.324,27.278 C16.813,27.278 16.398,26.863 16.398,26.352 L16.398,21.725 C16.398,21.214 16.813,20.799 17.324,20.799 Z" class="cls-2" style="fill: rgb(255, 255, 255); fill-rule: evenodd;"/>
      <path d="M28.173,16.429 C28.173,16.940 27.758,17.354 27.247,17.354 L22.620,17.354 C22.109,17.354 21.694,16.940 21.694,16.429 C21.694,15.918 22.109,15.504 22.620,15.504 L27.247,15.504 C27.758,15.504 28.173,15.918 28.173,16.429 Z" class="cls-3" style="fill: rgb(255, 255, 255); opacity: 0.5; fill-rule: evenodd;"/>
      <path d="M12.644,16.429 C12.644,16.940 12.230,17.354 11.719,17.354 L7.091,17.354 C6.580,17.354 6.166,16.940 6.166,16.429 C6.166,15.918 6.580,15.504 7.091,15.504 L11.719,15.504 C12.230,15.504 12.644,15.918 12.644,16.429 Z" class="cls-4" style="fill: rgb(255, 255, 255); fill-rule: evenodd;"/>
      <path d="M14.760,20.173 C15.197,20.436 15.339,21.005 15.075,21.443 L12.687,25.407 C12.423,25.844 11.855,25.986 11.417,25.722 C10.979,25.458 10.838,24.889 11.102,24.452 L13.489,20.488 C13.753,20.050 14.322,19.909 14.760,20.173 Z" class="cls-5" style="fill: rgb(255, 255, 255); fill-rule: evenodd;"/>
      <path d="M26.617,22.027 C26.353,22.465 25.784,22.606 25.347,22.342 L21.383,19.954 C20.945,19.691 20.804,19.122 21.068,18.684 C21.331,18.246 21.900,18.105 22.338,18.369 L26.302,20.756 C26.739,21.020 26.881,21.589 26.617,22.027 Z" class="cls-6" style="fill: rgb(255, 255, 255); opacity: 0.6; fill-rule: evenodd;"/>
      <path d="M13.271,14.174 C13.007,14.612 12.438,14.753 12.001,14.489 L8.037,12.102 C7.599,11.838 7.458,11.269 7.722,10.831 C7.985,10.393 8.554,10.252 8.992,10.516 L12.956,12.904 C13.394,13.167 13.535,13.736 13.271,14.174 Z" class="cls-7" style="fill: rgb(255, 255, 255); fill-rule: evenodd;"/>
      <path d="M26.818,11.180 C27.065,11.627 26.903,12.190 26.456,12.438 L22.406,14.677 C21.959,14.924 21.396,14.762 21.149,14.314 C20.901,13.867 21.063,13.304 21.511,13.057 L25.560,10.818 C26.008,10.570 26.571,10.733 26.818,11.180 Z" class="cls-8" style="fill: rgb(255, 255, 255); opacity: 0.3; fill-rule: evenodd;"/>
      <path d="M13.190,18.544 C13.437,18.991 13.275,19.554 12.828,19.801 L8.778,22.040 C8.331,22.287 7.768,22.125 7.520,21.678 C7.273,21.231 7.435,20.668 7.882,20.420 L11.932,18.181 C12.379,17.934 12.943,18.096 13.190,18.544 Z" class="cls-9" style="fill: rgb(255, 255, 255); fill-rule: evenodd;"/>
      <path d="M22.573,25.923 C22.126,26.171 21.563,26.008 21.315,25.561 L19.076,21.511 C18.829,21.064 18.991,20.501 19.438,20.254 C19.886,20.006 20.449,20.168 20.696,20.616 L22.935,24.665 C23.182,25.113 23.020,25.676 22.573,25.923 Z" class="cls-10" style="fill: rgb(255, 255, 255); opacity: 0.8; fill-rule: evenodd;"/>
      <path d="M14.900,12.604 C14.453,12.852 13.890,12.689 13.642,12.242 L11.403,8.192 C11.156,7.745 11.318,7.182 11.765,6.935 C12.213,6.687 12.776,6.850 13.023,7.297 L15.262,11.347 C15.509,11.794 15.347,12.357 14.900,12.604 Z" class="cls-11" style="fill: rgb(255, 255, 255); fill-rule: evenodd;"/>
      <path d="M17.014,5.580 C17.526,5.580 17.940,5.995 17.940,6.506 L17.940,11.133 C17.940,11.644 17.526,12.059 17.014,12.059 C16.503,12.059 16.089,11.644 16.089,11.133 L16.089,6.506 C16.089,5.995 16.503,5.580 17.014,5.580 Z" class="cls-12" style="fill: rgb(255, 255, 255); fill-rule: evenodd;"/>
    </g>
  </g>
</svg>